<?xml version="1.0" encoding="utf-8"?>
<!-- Generator: Adobe Illustrator 16.0.4, SVG Export Plug-In . SVG Version: 6.00 Build 0)  -->
<!DOCTYPE svg PUBLIC "-//W3C//DTD SVG 1.1 Tiny//EN" "http://www.w3.org/Graphics/SVG/1.1/DTD/svg11-tiny.dtd">
<svg version="1.1" baseProfile="tiny" id="Layer_1" xmlns="http://www.w3.org/2000/svg" xmlns:xlink="http://www.w3.org/1999/xlink"
	 x="0px" y="0px" width="230.4px" height="230.4px" viewBox="0 0 230.4 230.4" xml:space="preserve">
<g>
	<path d="M182.7,128.7c-2.038,0-3.965-0.468-5.7-1.279c-5.706,28.908-31.242,50.779-61.8,50.779c-34.738,0-63-28.262-63-63
		s28.262-63,63-63c30.558,0,56.094,21.871,61.8,50.78c1.735-0.812,3.662-1.28,5.7-1.28c1.136,0,2.233,0.156,3.288,0.422
		C179.817,68.646,150.434,43.2,115.2,43.2c-39.701,0-72,32.299-72,72s32.299,72,72,72c35.233,0,64.617-25.446,70.788-58.922
		C184.934,128.544,183.836,128.7,182.7,128.7z"/>
	<path d="M128.209,26.144c0.311,1.135,0.491,2.324,0.491,3.557c0,1.936-0.417,3.773-1.154,5.44
		c38.825,5.962,68.654,39.593,68.654,80.06c0,44.663-36.337,81-81,81c-44.664,0-81-36.337-81-81
		c0-40.467,29.829-74.098,68.654-80.06c-0.737-1.667-1.154-3.504-1.154-5.44c0-1.232,0.18-2.421,0.491-3.557
		C58.708,32.467,25.2,69.992,25.2,115.2c0,49.626,40.374,90,90,90s90-40.374,90-90C205.2,69.992,171.692,32.467,128.209,26.144z"/>
	<path d="M182.7,105.557c-5.317,0-9.643,4.326-9.643,9.643c0,5.317,4.325,9.643,9.643,9.643s9.643-4.325,9.643-9.643
		C192.343,109.883,188.018,105.557,182.7,105.557z"/>
	<path d="M115.2,20.057c-5.317,0-9.643,4.326-9.643,9.643s4.326,9.643,9.643,9.643c5.317,0,9.643-4.326,9.643-9.643
		S120.518,20.057,115.2,20.057z"/>
	<path d="M115.2,6.75C55.4,6.75,6.75,55.4,6.75,115.2c0,25.204,8.643,48.428,23.12,66.863c0.605-1.043,1.337-2.021,2.213-2.896
		c1.328-1.328,2.877-2.356,4.562-3.052C23.556,159.274,15.75,138.133,15.75,115.2c0-54.837,44.613-99.45,99.45-99.45
		s99.45,44.613,99.45,99.45s-44.613,99.45-99.45,99.45c-22.611,0-43.48-7.591-60.205-20.351c-0.695,1.732-1.735,3.325-3.095,4.685
		c-0.843,0.844-1.783,1.552-2.782,2.145c18.309,14.113,41.23,22.521,66.082,22.521c59.8,0,108.45-48.65,108.45-108.45
		S175,6.75,115.2,6.75z"/>
	<path d="M41.991,179.434c-5.317,0-9.643,4.325-9.643,9.643c0,5.316,4.326,9.643,9.643,9.643c5.317,0,9.643-4.326,9.643-9.643
		C51.634,183.759,47.309,179.434,41.991,179.434z"/>
	<path d="M115.2,145.2c-16.542,0-30-13.458-30-30s13.458-30,30-30c8.271,0,15.771,3.364,21.203,8.797l8.481-8.481
		C137.279,77.911,126.779,73.2,115.2,73.2c-23.159,0-42,18.841-42,42c0,23.159,18.841,42,42,42c11.58,0,22.08-4.71,29.685-12.315
		l-8.481-8.481C130.972,141.836,123.472,145.2,115.2,145.2z"/>
</g>
</svg>
